<svg viewBox="0 0 100 100" xmlns="http://www.w3.org/2000/svg">
  <defs>
    <linearGradient id="nixGradient" x1="0%" y1="0%" x2="100%" y2="100%">
      <stop offset="0%" style="stop-color:#5277C3"/>
      <stop offset="100%" style="stop-color:#7EBAE4"/>
    </linearGradient>
  </defs>
  
  <!-- Nix snowflake logo simplified -->
  <g fill="url(#nixGradient)">
    <circle cx="50" cy="50" r="45" fill="none" stroke="url(#nixGradient)" stroke-width="2"/>
    <polygon points="50,20 60,35 40,35" transform="rotate(0 50 50)"/>
    <polygon points="50,20 60,35 40,35" transform="rotate(60 50 50)"/>
    <polygon points="50,20 60,35 40,35" transform="rotate(120 50 50)"/>
    <polygon points="50,20 60,35 40,35" transform="rotate(180 50 50)"/>
    <polygon points="50,20 60,35 40,35" transform="rotate(240 50 50)"/>
    <polygon points="50,20 60,35 40,35" transform="rotate(300 50 50)"/>
  </g>
</svg>